M48
; DRILL file {KiCad 8.0.9} date 2026-04-09T16:57:34-0700
; FORMAT={-:-/ absolute / metric / decimal}
; #@! TF.CreationDate,2026-04-09T16:57:34-07:00
; #@! TF.GenerationSoftware,Kicad,Pcbnew,8.0.9
; #@! TF.FileFunction,MixedPlating,1,2
FMAT,2
METRIC
; #@! TA.AperFunction,Plated,PTH,ViaDrill
T1C0.300
; #@! TA.AperFunction,Plated,PTH,ComponentDrill
T2C0.750
; #@! TA.AperFunction,Plated,PTH,ComponentDrill
T3C1.000
%
G90
G05
T1
X139.0Y-94.0
X139.0Y-111.0
X139.5Y-118.0
X147.5Y-95.0
X151.0Y-95.0
X151.0Y-109.5
X151.5Y-115.0
X152.5Y-91.0
X152.5Y-94.0
X158.0Y-90.0
T2
X138.0Y-90.0
X138.0Y-92.0
X138.0Y-94.0
X138.05Y-118.0
X138.05Y-120.0
T3
X140.88Y-98.46
X140.88Y-101.0
X140.88Y-103.54
X140.88Y-106.08
X140.88Y-108.62
X140.88Y-111.16
X140.88Y-113.7
X156.12Y-98.46
X156.12Y-101.0
X156.12Y-103.54
X156.12Y-106.08
X156.12Y-108.62
X156.12Y-111.16
X156.12Y-113.7
M30
